<mxfile host="app.diagrams.net" modified="2021-11-07T13:00:26.160Z" agent="5.0 (Windows NT 10.0; Win64; x64) AppleWebKit/537.36 (KHTML, like Gecko) Chrome/93.0.4577.82 YaBrowser/21.9.2.169 Yowser/2.5 Safari/537.36" etag="sIfRdA_ND91ozcuistpE" version="15.7.0" type="github">
  <diagram id="EpMNy4CQ7s2g0WqwV1rE" name="Page-1">
    <mxGraphModel dx="1230" dy="543" grid="1" gridSize="10" guides="1" tooltips="1" connect="1" arrows="1" fold="1" page="1" pageScale="1" pageWidth="827" pageHeight="1169" math="0" shadow="0">
      <root>
        <mxCell id="0" />
        <mxCell id="1" parent="0" />
        <mxCell id="nLvpqW8SFUWm-uBf5z2E-4" style="edgeStyle=orthogonalEdgeStyle;rounded=0;orthogonalLoop=1;jettySize=auto;html=1;" parent="1" source="nLvpqW8SFUWm-uBf5z2E-1" target="nLvpqW8SFUWm-uBf5z2E-2" edge="1">
          <mxGeometry relative="1" as="geometry" />
        </mxCell>
        <mxCell id="nLvpqW8SFUWm-uBf5z2E-1" value="Closet" style="whiteSpace=wrap;html=1;aspect=fixed;" parent="1" vertex="1">
          <mxGeometry x="70" y="30" width="80" height="80" as="geometry" />
        </mxCell>
        <mxCell id="nLvpqW8SFUWm-uBf5z2E-5" style="edgeStyle=orthogonalEdgeStyle;rounded=0;orthogonalLoop=1;jettySize=auto;html=1;" parent="1" source="nLvpqW8SFUWm-uBf5z2E-2" target="nLvpqW8SFUWm-uBf5z2E-3" edge="1">
          <mxGeometry relative="1" as="geometry" />
        </mxCell>
        <mxCell id="nLvpqW8SFUWm-uBf5z2E-10" style="edgeStyle=orthogonalEdgeStyle;rounded=0;orthogonalLoop=1;jettySize=auto;html=1;entryX=0;entryY=0.5;entryDx=0;entryDy=0;" parent="1" source="nLvpqW8SFUWm-uBf5z2E-2" target="nLvpqW8SFUWm-uBf5z2E-8" edge="1">
          <mxGeometry relative="1" as="geometry" />
        </mxCell>
        <mxCell id="nLvpqW8SFUWm-uBf5z2E-2" value="Start" style="whiteSpace=wrap;html=1;aspect=fixed;" parent="1" vertex="1">
          <mxGeometry x="70" y="150" width="80" height="80" as="geometry" />
        </mxCell>
        <mxCell id="nLvpqW8SFUWm-uBf5z2E-7" style="edgeStyle=orthogonalEdgeStyle;rounded=0;orthogonalLoop=1;jettySize=auto;html=1;entryX=0;entryY=0.5;entryDx=0;entryDy=0;" parent="1" source="nLvpqW8SFUWm-uBf5z2E-3" target="nLvpqW8SFUWm-uBf5z2E-6" edge="1">
          <mxGeometry relative="1" as="geometry" />
        </mxCell>
        <mxCell id="nLvpqW8SFUWm-uBf5z2E-21" style="edgeStyle=orthogonalEdgeStyle;rounded=0;orthogonalLoop=1;jettySize=auto;html=1;entryX=0.5;entryY=0;entryDx=0;entryDy=0;" parent="1" source="nLvpqW8SFUWm-uBf5z2E-3" target="nLvpqW8SFUWm-uBf5z2E-20" edge="1">
          <mxGeometry relative="1" as="geometry" />
        </mxCell>
        <mxCell id="nLvpqW8SFUWm-uBf5z2E-3" value="Hallway" style="ellipse;whiteSpace=wrap;html=1;aspect=fixed;" parent="1" vertex="1">
          <mxGeometry x="55" y="270" width="110" height="110" as="geometry" />
        </mxCell>
        <mxCell id="nLvpqW8SFUWm-uBf5z2E-14" style="edgeStyle=orthogonalEdgeStyle;rounded=0;orthogonalLoop=1;jettySize=auto;html=1;entryX=0.375;entryY=1;entryDx=0;entryDy=0;entryPerimeter=0;" parent="1" source="nLvpqW8SFUWm-uBf5z2E-6" target="nLvpqW8SFUWm-uBf5z2E-11" edge="1">
          <mxGeometry relative="1" as="geometry" />
        </mxCell>
        <mxCell id="nLvpqW8SFUWm-uBf5z2E-19" style="edgeStyle=orthogonalEdgeStyle;rounded=0;orthogonalLoop=1;jettySize=auto;html=1;entryX=0.5;entryY=0;entryDx=0;entryDy=0;" parent="1" source="nLvpqW8SFUWm-uBf5z2E-6" target="nLvpqW8SFUWm-uBf5z2E-18" edge="1">
          <mxGeometry relative="1" as="geometry" />
        </mxCell>
        <mxCell id="nLvpqW8SFUWm-uBf5z2E-29" style="edgeStyle=orthogonalEdgeStyle;rounded=0;orthogonalLoop=1;jettySize=auto;html=1;entryX=0;entryY=0.5;entryDx=0;entryDy=0;" parent="1" source="nLvpqW8SFUWm-uBf5z2E-6" target="nLvpqW8SFUWm-uBf5z2E-28" edge="1">
          <mxGeometry relative="1" as="geometry" />
        </mxCell>
        <mxCell id="nLvpqW8SFUWm-uBf5z2E-6" value="Station" style="whiteSpace=wrap;html=1;aspect=fixed;" parent="1" vertex="1">
          <mxGeometry x="280" y="250" width="150" height="150" as="geometry" />
        </mxCell>
        <mxCell id="nLvpqW8SFUWm-uBf5z2E-8" value="Fireplace" style="whiteSpace=wrap;html=1;aspect=fixed;" parent="1" vertex="1">
          <mxGeometry x="190" y="150" width="80" height="80" as="geometry" />
        </mxCell>
        <mxCell id="nLvpqW8SFUWm-uBf5z2E-11" value="Warehouse" style="rounded=1;whiteSpace=wrap;html=1;" parent="1" vertex="1">
          <mxGeometry x="310" y="150" width="120" height="60" as="geometry" />
        </mxCell>
        <mxCell id="nLvpqW8SFUWm-uBf5z2E-18" value="Garage" style="rounded=1;whiteSpace=wrap;html=1;" parent="1" vertex="1">
          <mxGeometry x="295" y="460" width="120" height="60" as="geometry" />
        </mxCell>
        <mxCell id="nLvpqW8SFUWm-uBf5z2E-20" value="Prominade" style="rounded=0;whiteSpace=wrap;html=1;" parent="1" vertex="1">
          <mxGeometry x="7.5" y="460" width="205" height="60" as="geometry" />
        </mxCell>
        <mxCell id="nLvpqW8SFUWm-uBf5z2E-24" value="" style="shape=image;html=1;verticalAlign=top;verticalLabelPosition=bottom;labelBackgroundColor=#ffffff;imageAspect=0;aspect=fixed;image=https://cdn2.iconfinder.com/data/icons/summer-flat-11/272/summer-vacation-swimming-pool-swim-water-stair-128.png" parent="1" vertex="1">
          <mxGeometry y="521" width="89" height="89" as="geometry" />
        </mxCell>
        <mxCell id="nLvpqW8SFUWm-uBf5z2E-25" value="" style="shape=image;html=1;verticalAlign=top;verticalLabelPosition=bottom;labelBackgroundColor=#ffffff;imageAspect=0;aspect=fixed;image=https://cdn3.iconfinder.com/data/icons/font-awesome-solid/576/stairs-128.png" parent="1" vertex="1">
          <mxGeometry x="380" y="465" width="25" height="25" as="geometry" />
        </mxCell>
        <mxCell id="nLvpqW8SFUWm-uBf5z2E-26" value="Heliplace" style="whiteSpace=wrap;html=1;aspect=fixed;" parent="1" vertex="1">
          <mxGeometry x="400" y="430" width="90" height="90" as="geometry" />
        </mxCell>
        <mxCell id="nLvpqW8SFUWm-uBf5z2E-27" value="" style="shape=image;html=1;verticalAlign=top;verticalLabelPosition=bottom;labelBackgroundColor=#ffffff;imageAspect=0;aspect=fixed;image=https://cdn1.iconfinder.com/data/icons/tidee-transport/24/019_027_airdrone_copter_drone-128.png" parent="1" vertex="1">
          <mxGeometry x="405" y="501" width="20" height="20" as="geometry" />
        </mxCell>
        <mxCell id="nLvpqW8SFUWm-uBf5z2E-35" style="edgeStyle=orthogonalEdgeStyle;rounded=0;orthogonalLoop=1;jettySize=auto;html=1;" parent="1" source="nLvpqW8SFUWm-uBf5z2E-28" target="nLvpqW8SFUWm-uBf5z2E-34" edge="1">
          <mxGeometry relative="1" as="geometry" />
        </mxCell>
        <mxCell id="nLvpqW8SFUWm-uBf5z2E-28" value="Wordrobe" style="whiteSpace=wrap;html=1;aspect=fixed;" parent="1" vertex="1">
          <mxGeometry x="490" y="270" width="110" height="110" as="geometry" />
        </mxCell>
        <mxCell id="nLvpqW8SFUWm-uBf5z2E-30" value="" style="shape=image;html=1;verticalAlign=top;verticalLabelPosition=bottom;labelBackgroundColor=#ffffff;imageAspect=0;aspect=fixed;image=https://cdn3.iconfinder.com/data/icons/font-awesome-solid/576/stairs-128.png" parent="1" vertex="1">
          <mxGeometry x="532.5" y="290" width="25" height="25" as="geometry" />
        </mxCell>
        <mxCell id="nLvpqW8SFUWm-uBf5z2E-31" value="Roof" style="whiteSpace=wrap;html=1;aspect=fixed;" parent="1" vertex="1">
          <mxGeometry x="558" y="250" width="80" height="80" as="geometry" />
        </mxCell>
        <mxCell id="nLvpqW8SFUWm-uBf5z2E-32" value="" style="shape=image;html=1;verticalAlign=top;verticalLabelPosition=bottom;labelBackgroundColor=#ffffff;imageAspect=0;aspect=fixed;image=https://cdn2.iconfinder.com/data/icons/summer-flat-11/272/summer-vacation-swimming-pool-swim-water-stair-128.png" parent="1" vertex="1">
          <mxGeometry x="68" y="521" width="89" height="89" as="geometry" />
        </mxCell>
        <mxCell id="nLvpqW8SFUWm-uBf5z2E-33" value="" style="shape=image;html=1;verticalAlign=top;verticalLabelPosition=bottom;labelBackgroundColor=#ffffff;imageAspect=0;aspect=fixed;image=https://cdn2.iconfinder.com/data/icons/summer-flat-11/272/summer-vacation-swimming-pool-swim-water-stair-128.png" parent="1" vertex="1">
          <mxGeometry x="152" y="521" width="89" height="89" as="geometry" />
        </mxCell>
        <mxCell id="nLvpqW8SFUWm-uBf5z2E-34" value="Armoryplace" style="rounded=1;whiteSpace=wrap;html=1;" parent="1" vertex="1">
          <mxGeometry x="570" y="420" width="120" height="90" as="geometry" />
        </mxCell>
      </root>
    </mxGraphModel>
  </diagram>
</mxfile>
